Coordinates
version=1
nRows=7
nColumns=40
inDegrees=yes

Units are S.I. units (second, meters, Newtons, ...)
Angles are in degrees.

endheader
time	pelvis_tilt	pelvis_list	pelvis_rotation	pelvis_tx	pelvis_ty	pelvis_tz	hip_flexion_r	hip_adduction_r	hip_rotation_r	knee_angle_r	knee_angle_r_beta	ankle_angle_r	subtalar_angle_r	mtp_angle_r	hip_flexion_l	hip_adduction_l	hip_rotation_l	knee_angle_l	knee_angle_l_beta	ankle_angle_l	subtalar_angle_l	mtp_angle_l	lumbar_extension	lumbar_bending	lumbar_rotation	arm_flex_r	arm_add_r	arm_rot_r	elbow_flex_r	pro_sup_r	wrist_flex_r	wrist_dev_r	arm_flex_l	arm_add_l	arm_rot_l	elbow_flex_l	pro_sup_l	wrist_flex_l	wrist_dev_l
     11.98500000	     -1.99211776	     -3.23722092	      1.31156524	      0.86272791	      0.92556169	      0.45313678	     19.86349096	     -0.52444492	    -12.82905418	     23.18907067	     23.18907067	      7.12678513	     -7.49963423	      0.12389754	      2.09988178	     -7.85422054	    -10.32553352	     32.11711908	     32.11711908	     16.92995447	     -5.64321281	     -8.94538801	     -7.62033017	      2.59663412	      0.14880870	     -7.83386463	    -14.02642901	     -5.93252155	     33.55790338	     46.30538661	      0.00000000	      0.00000000	     14.31540986	    -11.78051676	     -5.25520698	     47.16323629	     46.84102259	      0.00000000	      0.00000000
     11.99714286	     -2.07778239	     -3.42153649	      1.54557789	      0.86269369	      0.92619536	      0.45558250	     19.24707529	     -0.18151341	    -13.19968983	     22.84299268	     22.84299268	      7.41604765	     -7.29468952	     -0.18115634	      3.90167323	     -8.51919805	     -9.01798868	     35.68049577	     35.68049577	     14.06857605	     -8.31977139	    -12.07715852	     -7.58520094	      2.67289936	     -0.12361924	     -6.45123162	    -14.14717395	     -5.64528939	     35.98882008	     46.18171813	      0.00000000	      0.00000000	     14.27223190	    -11.71616796	     -4.93453576	     42.75879909	     46.76612115	      0.00000000	      0.00000000
     12.00928571	     -2.01508255	     -3.83684751	      1.72438376	      0.86252387	      0.92679238	      0.45815012	     18.40414417	      0.45216859	    -13.62803711	     22.34315406	     22.34315406	      7.73649555	     -6.96816030	     -0.26827122	      5.89781306	     -9.58508988	     -7.99683737	     39.94336626	     39.94336626	     12.15286986	     -9.70349892	    -12.67878325	     -7.80251302	      3.01994913	      0.30670534	     -4.81923181	    -14.22460807	     -5.65621980	     37.03902615	     46.14977280	      0.00000000	      0.00000000	     13.64489712	    -11.46478852	     -4.79244662	     41.74378332	     46.73512036	      0.00000000	      0.00000000
     12.02142857	     -2.18376399	     -4.03712089	      1.97370120	      0.86217097	      0.92703473	      0.46041265	     17.83914320	      0.83062331	    -13.94251088	     21.86876938	     21.86876938	      7.95922531	     -6.73369777	     -0.85379216	      8.10081794	    -10.07284611	     -6.33811236	     43.69509941	     43.69509941	      8.19053417	    -13.00042324	    -16.22795583	     -7.67421884	      3.10456031	      0.67570318	     -4.54583326	    -14.75913763	     -4.80926118	     41.34420259	     45.90964079	      0.00000000	      0.00000000	     14.21432553	    -10.88662281	     -4.46495379	     36.26697748	     46.66041234	      0.00000000	      0.00000000
     12.03357143	     -2.26354510	     -4.36995300	      2.18199499	      0.86167595	      0.92718537	      0.46267813	     17.23910490	      1.36378006	    -14.24452164	     21.47441567	     21.47441567	      8.24223074	     -6.56811530	     -0.94815420	     10.49726612	    -10.74982633	     -4.88092829	     47.97862898	     47.97862898	      5.83783398	    -14.51547141	    -15.78367284	     -7.71679322	      3.31155777	      0.57002450	     -2.68939194	    -14.85035925	     -4.92097317	     42.84967688	     45.86671447	      0.00000000	      0.00000000	     13.12817437	    -10.84478048	     -4.34778048	     34.95186749	     46.62303989	      0.00000000	      0.00000000
     12.04571429	     -2.23023191	     -4.67532282	      2.34710204	      0.86110469	      0.92730878	      0.46479979	     16.59592847	      1.86965964	    -14.45221805	     21.22440496	     21.22440496	      8.64430655	     -6.44902010	     -1.10365056	     12.78891001	    -11.24156156	     -3.34987557	     52.07758310	     52.07758310	      3.51561312	    -15.85759637	    -14.88396675	     -7.86805720	      3.54993523	      0.60638203	     -0.81267447	    -15.01725780	     -4.97744629	     44.44138996	     45.81904692	      0.00000000	      0.00000000	     12.17951111	    -10.70260431	     -4.22822640	     33.64723961	     46.58879820	      0.00000000	      0.00000000
     12.05785714	     -2.32399058	     -4.75727479	      2.51111161	      0.86028850	      0.92724678	      0.46654366	     16.14366511	      2.08830483	    -14.59499433	     21.05149294	     21.05149294	      8.96878445	     -6.36035255	     -1.61232471	     15.37272256	    -11.15942565	     -1.60914781	     56.30139396	     56.30139396	      3.12486204	    -16.28227896	     -8.88864098	     -7.94662089	      3.55869704	      0.95671203	     -0.28898125	    -15.81161883	     -3.66486535	     49.64539612	     45.55646867	      0.00000000	      0.00000000	     12.38760117	    -10.29638658	     -4.07879374	     29.46372800	     46.55913875	      0.00000000	      0.00000000
